<?xml version="1.0" encoding="UTF-8"?>
<svg version="1.1" xmlns="http://www.w3.org/2000/svg" width="550" height="550">
<path d="M0 0 C28.15681916 -0.04687233 56.31363241 -0.08206312 84.47048283 -0.10362434 C97.54633456 -0.11390493 110.62216195 -0.12790322 123.69799805 -0.15087891 C135.10458136 -0.17091185 146.51114702 -0.18373977 157.91774744 -0.18817699 C163.94862107 -0.19076771 169.97944425 -0.19678873 176.01030159 -0.21146011 C181.70575528 -0.22520114 187.40113852 -0.22918987 193.09660721 -0.22621536 C195.16876167 -0.22675824 197.2409189 -0.23063601 199.31305885 -0.23841095 C217.92626421 -0.30472716 236.68766289 0.36731001 254.9375 4.3125 C255.9805127 4.53123779 257.02352539 4.74997559 258.09814453 4.9753418 C266.59311642 6.80827361 274.85118085 8.95963374 283 12 C283.74411133 12.27682617 284.48822266 12.55365234 285.25488281 12.83886719 C315.91974353 24.48773625 342.75775896 45.6758016 356.875 75.75 C357.95455151 78.15321033 358.98098503 80.56962204 360 83 C360.59941406 84.41539063 360.59941406 84.41539063 361.2109375 85.859375 C370.51841381 109.5129614 371.06632447 139.52758592 365 164 C364.70198486 165.2051123 364.70198486 165.2051123 364.39794922 166.43457031 C359.81656306 184.30026047 351.08043412 209.27971059 335 220 C332.26205593 218.9740887 329.81664741 217.87258647 327.2265625 216.546875 C326.46580414 216.17145569 325.70504578 215.79603638 324.92123413 215.40924072 C322.48245786 214.20245903 320.05373278 212.97685098 317.625 211.75 C315.20150075 210.54161902 312.77611234 209.33711224 310.35018921 208.13360596 C308.84020453 207.38275091 307.33199933 206.62830367 305.82583618 205.86981201 C302.26670942 204.08342421 298.73301146 202.40341521 295 201 C295.56237321 197.18918153 296.81551412 193.91097235 298.32373047 190.37939453 C301.74280862 182.28859759 304.09693521 174.22548054 305.875 165.625 C306.17905762 164.16549927 306.17905762 164.16549927 306.48925781 162.67651367 C312.93154088 129.77803272 308.1822907 95.40736163 290.1328125 66.98828125 C287.28469916 62.99779277 284.09584159 59.44351218 280.6875 55.92578125 C279 54 279 54 279 52 C278.11634766 51.60167969 278.11634766 51.60167969 277.21484375 51.1953125 C274.94187646 49.96863174 273.42206649 48.6558766 271.5625 46.875 C259.43628103 36.11354 244.81137441 30.39738559 229.375 26.25 C228.26680908 25.95186401 228.26680908 25.95186401 227.13623047 25.64770508 C186.68513057 15.35178362 143.73894422 21.39751375 102 21 C102.33 97.89 102.66 174.78 103 254 C153.02303733 254.37602435 153.02303733 254.37602435 203 253 C205.96535548 254.77921329 208.60870428 256.36622054 211.3125 258.41796875 C211.90651611 258.86374268 212.50053223 259.3095166 213.11254883 259.76879883 C213.73540771 260.23697021 214.3582666 260.7051416 215 261.1875 C222.59689244 266.82799895 230.40668085 272.0425227 238.78515625 276.47265625 C245.62060411 280.17390178 248.99952712 284.40742807 253 291 C254.0779652 292.71466988 255.15597225 294.42931356 256.23461914 296.14355469 C257.49403156 298.15268431 258.74318217 300.1679799 259.9921875 302.18359375 C263.62905864 308.0313326 267.34699701 313.82702618 271.0625 319.625 C271.7630249 320.71820557 272.4635498 321.81141113 273.18530273 322.93774414 C277.30106311 329.35693136 281.42137197 335.77317743 285.55078125 342.18359375 C287.57817398 345.33663285 289.59220548 348.49807883 291.60546875 351.66015625 C307.86081011 378.38035177 307.86081011 378.38035177 327 403 C327.46164551 403.50934082 327.92329102 404.01868164 328.39892578 404.54345703 C347.37285698 425.23393128 370.28195901 434.83222389 398 438 C398 442.62 398 447.24 398 452 C389.4274973 452.06833332 380.85521362 452.12313266 372.2825098 452.15543652 C368.29997028 452.17095668 364.31762999 452.19193816 360.33520508 452.22631836 C356.47721394 452.25940808 352.61941191 452.27695496 348.7612896 452.28463173 C347.30440743 452.29008785 345.84753318 452.30073551 344.39073372 452.31719017 C330.54687639 452.46704427 316.84713595 450.8458797 303.6875 446.3125 C302.94169678 446.05686279 302.19589355 445.80122559 301.42749023 445.5378418 C278.7411052 437.32806704 265.45963759 416.48460103 253.22167969 396.94873047 C251.88556001 394.81745404 250.54105343 392.69162001 249.1953125 390.56640625 C246.64467731 386.53672929 244.1002051 382.50320034 241.55712891 378.46875 C240.01245485 376.01974655 238.46561759 373.57212445 236.91796875 371.125 C229.26057661 359.01640436 221.61133436 346.90285627 214.125 334.6875 C211.46329026 330.34833104 208.7604263 326.03903671 206.02832031 321.74389648 C200.61071147 313.21955426 195.28755414 304.63957386 190.02902222 296.01638794 C189.26430573 294.76305371 188.49830912 293.51049958 187.73098755 292.25875854 C186.64745515 290.48997262 185.56913334 288.71811446 184.4921875 286.9453125 C183.86683105 285.91937988 183.24147461 284.89344727 182.59716797 283.83642578 C181 281 181 281 179 276 C153.92 276.33 128.84 276.66 103 277 C102.93983598 298.43417003 102.93983598 298.43417003 102.89949226 319.86835194 C102.88844604 327.53913183 102.87446283 335.20986781 102.84912109 342.88061523 C102.82689703 349.61093203 102.81540603 356.3411915 102.81024551 363.07154655 C102.80657135 365.62974735 102.79939706 368.18794578 102.78853989 370.74612617 C101.64321481 401.00393735 101.64321481 401.00393735 114.72265625 427.05859375 C122.75041332 433.90215338 132.70518074 436.05529739 142.9375 437.125 C144.10635742 437.25455078 144.10635742 437.25455078 145.29882812 437.38671875 C147.1986337 437.59651323 149.09924174 437.79901994 151 438 C150.67 442.62 150.34 447.24 150 452 C100.5 452 51 452 0 452 C0 447.38 0 442.76 0 438 C1.28132813 437.86464844 2.56265625 437.72929687 3.8828125 437.58984375 C17.41586825 435.97673603 29.4429136 433.53730039 39 423 C47.06811878 412.26385253 47.44803446 398.26358491 47.38095093 385.36453247 C47.38441716 383.94491781 47.38918814 382.52530586 47.39513266 381.10569942 C47.40754022 377.24600378 47.40151958 373.38653354 47.39217401 369.52683759 C47.38534124 365.34812804 47.39588563 361.16945524 47.40411377 356.99075317 C47.4174092 348.82040277 47.41459192 340.65013534 47.40587585 332.47978176 C47.39908222 325.83455582 47.39818982 319.18935303 47.4014473 312.5441246 C47.401907 311.59591676 47.40236669 310.64770892 47.40284032 309.67076751 C47.40379957 307.74407268 47.40477221 305.81737786 47.4057581 303.89068304 C47.41429996 285.85021003 47.40449727 267.80978286 47.388357 249.76931737 C47.37495926 234.31640347 47.37727977 218.86355721 47.39111328 203.41064453 C47.4071979 185.43487431 47.41347154 167.45914422 47.40427649 149.4833678 C47.40332092 147.56341418 47.40237781 145.64346056 47.4014473 143.72350693 C47.40098447 142.77903422 47.40052164 141.83456151 47.40004479 140.86146841 C47.39746321 134.23135731 47.40180797 127.60127183 47.40888596 120.9711647 C47.41733344 112.88088713 47.41495312 104.79069678 47.39904372 96.7004291 C47.3912038 92.57890855 47.38799551 88.457533 47.39799118 84.33601379 C47.40702859 80.55213641 47.40185907 76.76853637 47.38605852 72.98468362 C47.38119847 70.99098295 47.3908257 68.99726252 47.40123022 67.00358307 C47.30227904 51.55347274 45.34277563 35.48197519 34 24 C23.75857386 16.89141066 12.07349042 14.95556535 0 13 C0 8.71 0 4.42 0 0 Z " fill="#1F292B" transform="translate(24,10)"/>
<path d="M0 0 C6.50856393 5.12376309 13.25451506 11.50903012 17 19 C16.03320312 19.556875 15.06640625 20.11375 14.0703125 20.6875 C6.21890568 25.26613966 -1.14940393 29.97749796 -8 36 C-8.62132812 36.515625 -9.24265625 37.03125 -9.8828125 37.5625 C-20.10394899 46.72943856 -27.31370943 62.73389203 -28.14086914 76.3125 C-28.90020025 96.53088009 -25.79943864 113.85592674 -11.625 129.3125 C-3.80399162 137.53247157 4.21878693 144.23694858 14 150 C14.84014648 150.4962085 14.84014648 150.4962085 15.69726562 151.00244141 C42.07041663 166.47324884 70.08255954 177.99216511 98.54077148 188.9703064 C111.51753657 193.98044112 124.32429173 199.2647615 137 205 C138.05364746 205.47147461 139.10729492 205.94294922 140.19287109 206.42871094 C163.72391889 216.97155322 187.02596996 228.1181873 205.921875 246.0625 C208.01054606 248.06886162 208.01054606 248.06886162 210.49609375 249.93359375 C215.01980994 253.66689463 218.4024614 258.39611475 222 263 C223.04607422 264.32257813 223.04607422 264.32257813 224.11328125 265.671875 C243.44972681 291.05330646 248.55392303 324.3856029 244.65234375 355.45703125 C242.11775413 373.70381688 235.76679929 390.08487174 225 405 C224.39800781 405.84433594 223.79601562 406.68867188 223.17578125 407.55859375 C197.29212263 441.75197357 155.90578063 459.89285922 114.21972656 465.70751953 C52.15411406 473.88554458 -15.29638709 464.35404942 -70.625 434.375 C-71.46732178 433.91947754 -72.30964355 433.46395508 -73.17749023 432.99462891 C-73.97743408 432.55038574 -74.77737793 432.10614258 -75.6015625 431.6484375 C-76.30619629 431.25833496 -77.01083008 430.86823242 -77.73681641 430.46630859 C-78.48366699 429.98242676 -79.23051758 429.49854492 -80 429 C-81.02262939 428.34200912 -82.04525879 427.68401825 -83.09887695 427.00608826 C-85.02027593 425.37496407 -85.88416183 424.42989348 -86.54460716 421.97887802 C-86.73936446 419.44631721 -86.74212823 416.97574574 -86.68115234 414.4362793 C-86.6820285 413.47969925 -86.68290466 412.5231192 -86.68380737 411.53755188 C-86.6796341 408.3822708 -86.63299292 405.22912744 -86.5859375 402.07421875 C-86.57474448 399.88419252 -86.56620479 397.69415125 -86.56021118 395.50410461 C-86.53732156 389.74484652 -86.47839587 383.98649889 -86.4119873 378.2276001 C-86.35056843 372.34912431 -86.32319693 366.47050115 -86.29296875 360.59179688 C-86.22865383 349.06079828 -86.12627168 337.5304749 -86 326 C-81.38 326 -76.76 326 -72 326 C-71.70867187 327.34191406 -71.41734375 328.68382812 -71.1171875 330.06640625 C-64.75423125 358.5835392 -52.13158564 382.70631943 -32 404 C-31.23042969 404.83402344 -30.46085937 405.66804688 -29.66796875 406.52734375 C-5.08476719 432.30197672 32.75114751 445.11033522 67.75 446.28515625 C103.08884896 446.96526149 139.83248614 439.78320754 166.3671875 414.72265625 C177.77779457 402.92266645 184.96508557 388.83551843 189 373 C189.22558594 372.16855469 189.45117188 371.33710938 189.68359375 370.48046875 C194.06951883 351.27314166 191.39815851 329.2957707 182 312 C181.50886719 311.03964844 181.01773437 310.07929688 180.51171875 309.08984375 C164.52314191 279.51670044 130.69139463 264.85453418 101.28637695 252.01245117 C98.77108913 250.89863392 96.27280359 249.7506417 93.7734375 248.6015625 C87.55665843 245.76911004 81.25602061 243.15835193 74.9375 240.5625 C73.68554356 240.04602231 72.43367413 239.52933367 71.18188477 239.01245117 C64.94559867 236.43908326 58.70443621 233.87776311 52.4596405 231.32511902 C-51.30656997 188.90816983 -51.30656997 188.90816983 -72.2734375 141.36328125 C-82.30208202 117.13916104 -81.96320576 87.20548065 -72 63 C-58.10874564 31.60293019 -32.89111186 12.7658142 -1.66015625 0.62890625 C-1.11230469 0.42136719 -0.56445312 0.21382813 0 0 Z " fill="#1F292B" transform="translate(285,70)"/>
<path d="M0 0 C7.18523534 -0.19480304 13.96755912 0.51401422 21.0625 1.625 C22.19429688 1.8017627 23.32609375 1.97852539 24.4921875 2.16064453 C50.33874181 6.3833505 93.45604875 14.45604875 113 34 C113.09525367 36.92194665 113.12552736 39.82020329 113.11352539 42.74243164 C113.11367142 43.6594133 113.11381744 44.57639496 113.1139679 45.52116394 C113.1132684 48.56751836 113.10547428 51.61381245 113.09765625 54.66015625 C113.0957922 56.76622993 113.09436824 58.87230403 113.09336853 60.9783783 C113.08954231 66.53342883 113.07971114 72.08845341 113.06866455 77.64349365 C113.05845267 83.3072474 113.05387139 88.97100533 113.04882812 94.63476562 C113.03808896 105.75652185 113.0210113 116.87825877 113 128 C108.71 128 104.42 128 100 128 C99.70867187 126.90945312 99.41734375 125.81890625 99.1171875 124.6953125 C97.79063747 119.78361107 96.40924339 114.88857778 95 110 C94.78069824 109.23671387 94.56139648 108.47342773 94.33544922 107.68701172 C84.95484796 75.70864741 65.79383985 49.16688805 36.43359375 33.0078125 C29.66083135 29.46678935 29.66083135 29.46678935 22.3984375 27.19921875 C17.16144679 25.99550956 13.5826982 25.12434301 10.33496094 20.76513672 C6.6919956 14.76399208 3.79223336 8.43098774 1 2 C0.67 1.34 0.34 0.68 0 0 Z " fill="#1F292B" transform="translate(388,61)"/>
<path d="M0 0 C0.33 0.66 0.66 1.32 1 2 C3.32156597 2.40729228 5.6568787 2.74438677 8 3 C8 3.33 8 3.66 8 4 C2.39 4 -3.22 4 -9 4 C-9 6.97 -9 9.94 -9 13 C-8.07002701 12.83766876 -7.14005402 12.67533752 -6.18190002 12.50808716 C-1.15916525 11.79616255 3.84635128 11.86041838 8.91040039 11.87060547 C9.98799118 11.86885315 11.06558197 11.86710083 12.17582703 11.86529541 C15.73311992 11.86090123 19.29036286 11.86380947 22.84765625 11.8671875 C25.34085601 11.86651303 27.83405571 11.8655418 30.32725525 11.86428833 C36.22945306 11.86262543 42.13163301 11.86611884 48.0338282 11.8714391 C54.01073673 11.87621866 59.9876241 11.87146793 65.9645319 11.86605644 C71.12186477 11.86240549 76.27918834 11.86361076 81.43652153 11.86618423 C83.88286786 11.86684336 86.32921509 11.86606131 88.77556038 11.86370468 C103.27034146 11.85281946 117.70522513 12.1078129 132.17934322 12.91031075 C133.45170343 12.9729898 134.72609688 13 136 13 C136 13.66 136 14.32 136 15 C86.5 15 37 15 -14 15 C-14 10.38 -14 5.76 -14 1 C-4.42857143 -0.14285714 -4.42857143 -0.14285714 0 0 Z " fill="#141C1D" transform="translate(38,447)"/>
<path d="M0 0 C0.33 0 0.66 0 1 0 C1.33 76.89 1.66 153.78 2 233 C28.73 233.33 55.46 233.66 83 234 C82.67 234.66 82.34 235.32 82 236 C63.33333333 236 44.66666667 236 26 236 C25.175 236.165 24.35 236.33 23.5 236.5 C19.57836892 237.28432622 15.75115239 237.11782783 11.8125 236.5 C7.31884514 235.82662128 7.31884514 235.82662128 0 236 C0 158.12 0 80.24 0 0 Z " fill="#141C1D" transform="translate(125,31)"/>
<path d="M0 0 C0.99 0.99 1.98 1.98 3 3 C3.33 2.01 3.66 1.02 4 0 C16.15244963 -0.02317746 28.30489399 -0.04094268 40.45736122 -0.05181217 C46.10032558 -0.05702916 51.74327481 -0.06410535 57.38623047 -0.07543945 C62.83269779 -0.08631036 68.27915056 -0.09228577 73.7256279 -0.09487724 C75.8028219 -0.0967239 77.88001511 -0.10032994 79.95720291 -0.10573006 C82.8681332 -0.11299622 85.77900349 -0.11398858 88.68994141 -0.11352539 C89.54733917 -0.11712067 90.40473694 -0.12071594 91.28811646 -0.12442017 C95.64093899 -0.11693289 99.71346071 0.12624103 104 1 C104 1.33 104 1.66 104 2 C102.35 2.33 100.7 2.66 99 3 C99 3.33 99 3.66 99 4 C65.34 4 31.68 4 -3 4 C-2.34 3.67 -1.68 3.34 -1 3 C-0.67 2.01 -0.34 1.02 0 0 Z " fill="#151D1E" transform="translate(129,27)"/>
<path d="M0 0 C0.92995285 -0.00315216 1.8599057 -0.00630432 2.81803894 -0.009552 C4.34730766 -0.00651566 4.34730766 -0.00651566 5.9074707 -0.00341797 C7.49178642 -0.00485306 7.49178642 -0.00485306 9.10810852 -0.00631714 C11.36373961 -0.00700038 13.61937264 -0.00513617 15.875 -0.00097656 C19.24589795 0.00425886 22.61665569 -0.00085752 25.98754883 -0.00732422 C39.90081186 -0.0111733 53.75378141 0.36338623 67.64575195 1.12939453 C67.64575195 1.78939453 67.64575195 2.44939453 67.64575195 3.12939453 C32.50075195 3.62439453 32.50075195 3.62439453 -3.35424805 4.12939453 C-3.68424805 43.06939453 -4.01424805 82.00939453 -4.35424805 122.12939453 C-4.68424805 122.12939453 -5.01424805 122.12939453 -5.35424805 122.12939453 C-5.37757736 106.37022709 -5.39522738 90.61106429 -5.40606022 74.85188389 C-5.41122311 67.53512051 -5.41826567 60.21836784 -5.4296875 52.90161133 C-5.43963455 46.52656435 -5.44610152 40.15152512 -5.44833654 33.7764706 C-5.44964361 30.39891439 -5.45272923 27.02138037 -5.4599781 23.64383125 C-5.46718417 19.8793211 -5.46823917 16.11485768 -5.46777344 12.3503418 C-5.47316635 10.65857567 -5.47316635 10.65857567 -5.47866821 8.93263245 C-5.47729355 7.91314514 -5.47591888 6.89365784 -5.47450256 5.84327698 C-5.47542436 4.95190316 -5.47634615 4.06052935 -5.47729588 3.1421442 C-5.24685599 -0.62726651 -3.29115313 0.00319449 0 0 Z " fill="#141C1D" transform="translate(130.354248046875,282.87060546875)"/>
<path d="M0 0 C71.28 0 142.56 0 216 0 C216 0.33 216 0.66 216 1 C146.37 1 76.74 1 5 1 C5.33 3.97 5.66 6.94 6 10 C5.34 10.66 4.68 11.32 4 12 C2.68 11.34 1.36 10.68 0 10 C0 6.7 0 3.4 0 0 Z " fill="#141C1D" transform="translate(24,10)"/>
<path d="M0 0 C1.09892578 0.0721875 2.19785156 0.144375 3.33007812 0.21875 C16.39825391 1.02160239 29.41126587 1.08859417 42.5 1 C56.71005642 0.9038159 70.81682851 1.06831953 85 2 C85 2.66 85 3.32 85 4 C76.42753458 4.07014399 67.85519314 4.12313274 59.2825098 4.15543652 C55.29997028 4.17095668 51.31762999 4.19193816 47.33520508 4.22631836 C43.47721394 4.25940808 39.61941191 4.27695496 35.7612896 4.28463173 C34.30440743 4.29008785 32.84753318 4.30073551 31.39073372 4.31719017 C20.61908386 4.43378888 10.5488783 3.17185354 0 1 C0 0.67 0 0.34 0 0 Z " fill="#141C1D" transform="translate(337,458)"/>
<path d="M0 0 C7.53726687 -0.2397858 14.62842219 0.67773561 22.0625 1.875 C23.76116211 2.13603516 23.76116211 2.13603516 25.49414062 2.40234375 C31.4225997 3.33459998 37.20809313 4.42618932 43 6 C39.69201893 6.91005593 37.23504843 6.96253813 33.8125 6.5625 C25.68562034 5.7314645 18.09878239 5.97158319 10 7 C9.34 8.98 8.68 10.96 8 13 C5.81302498 10.20375042 4.00847187 7.36692128 2.3125 4.25 C1.65701172 3.05117187 1.65701172 3.05117187 0.98828125 1.828125 C0.49908203 0.92320313 0.49908203 0.92320313 0 0 Z " fill="#1C2627" transform="translate(388,61)"/>
<path d="M0 0 C0.66 0 1.32 0 2 0 C1.98839844 0.78246094 1.97679687 1.56492188 1.96484375 2.37109375 C1.95582031 3.38300781 1.94679687 4.39492187 1.9375 5.4375 C1.92589844 6.44683594 1.91429687 7.45617187 1.90234375 8.49609375 C1.71387324 10.94021067 1.71387324 10.94021067 3 12 C3.33 10.68 3.66 9.36 4 8 C4 18.23 4 28.46 4 39 C3.34 38.34 2.68 37.68 2 37 C1.67 40.63 1.34 44.26 1 48 C0.67 48 0.34 48 0 48 C0 43.71 0 39.42 0 35 C0.66 35 1.32 35 2 35 C1.855625 34.38253906 1.71125 33.76507813 1.5625 33.12890625 C0.28636949 27.30656079 -0.2188968 21.94669643 0 16 C0 15.01 0 14.02 0 13 C0 8.66666667 0 4.33333333 0 0 Z " fill="#141C1D" transform="translate(253,131)"/>
<path d="M0 0 C4.3789314 8.00950809 3.15280202 18.32328941 3.125 27.1875 C3.12886719 28.43208984 3.13273437 29.67667969 3.13671875 30.95898438 C3.13478516 32.76399414 3.13478516 32.76399414 3.1328125 34.60546875 C3.13112061 36.23198364 3.13112061 36.23198364 3.12939453 37.89135742 C2.99984927 41.00362116 2.57823536 43.94201351 2 47 C1.67 47 1.34 47 1 47 C-0.00090639 31.32509099 -0.11531128 15.70362179 0 0 Z " fill="#141C1D" transform="translate(389,115)"/>
<path d="M0 0 C0.66 0 1.32 0 2 0 C2.98248524 4.0527516 3.08159574 7.83861737 3 12 C2.01 12.495 2.01 12.495 1 13 C1 24.22 1 35.44 1 47 C-1.64969326 44.35030674 -1.23810914 42.40717046 -1.25224304 38.80302429 C-1.24505753 37.95408096 -1.23787201 37.10513763 -1.23046875 36.23046875 C-1.23001053 35.35731522 -1.22955231 34.48416168 -1.2290802 33.58454895 C-1.22605564 31.7343307 -1.21816326 29.88411504 -1.20581055 28.03393555 C-1.18764075 25.20938019 -1.18530029 22.38515437 -1.18554688 19.56054688 C-1.18062818 17.76301801 -1.17479833 15.96549137 -1.16796875 14.16796875 C-1.16685593 13.32509811 -1.1657431 12.48222748 -1.16459656 11.61381531 C-1.13245512 7.61369084 -0.99169329 3.90395767 0 0 Z " fill="#141C1D" transform="translate(526,378)"/>
<path d="M0 0 C8.60308032 0.44953032 16.65932321 1.86101998 25 4 C21.74149961 5.02540222 19.19057934 4.95734044 15.8125 4.5625 C8.00306267 3.7639254 -0.27102799 3.26792593 -8 5 C-8.66 5.66 -9.32 6.32 -10 7 C-10.33 5.68 -10.66 4.36 -11 3 C-7.26562152 2.12132271 -3.83225427 1.91087781 0 2 C0 1.34 0 0.68 0 0 Z " fill="#141C1D" transform="translate(406,63)"/>
<path d="M0 0 C0.33 0 0.66 0 1 0 C1.33 5.61 1.66 11.22 2 17 C-0.31 16.34 -2.62 15.68 -5 15 C-4.37321829 11.33827525 -3.35548154 8.1181005 -1.9375 4.6875 C-1.39416016 3.36298828 -1.39416016 3.36298828 -0.83984375 2.01171875 C-0.56269531 1.34785156 -0.28554688 0.68398437 0 0 Z " fill="#141C1D" transform="translate(324,196)"/>
<path d="M0 0 C-3.0526063 0.88327729 -5.82505177 1.1633007 -9 1.1875 C-9.845625 1.20167969 -10.69125 1.21585937 -11.5625 1.23046875 C-14.15408616 0.98543096 -15.77024992 0.30584901 -18 -1 C-18.33 -0.34 -18.66 0.32 -19 1 C-20.32 0.34 -21.64 -0.32 -23 -1 C-16.31608629 -4.34195686 -5.95225696 -4.32891416 0 0 Z " fill="#161E1F" transform="translate(232,266)"/>
<path d="M0 0 C0.33 0 0.66 0 1 0 C1 8.25 1 16.5 1 25 C0.01 25 -0.98 25 -2 25 C-1.79375 24.236875 -1.5875 23.47375 -1.375 22.6875 C-0.66608797 19.78114056 -0.66608797 19.78114056 -3 17 C-2.79296875 14.2578125 -2.79296875 14.2578125 -2.1875 11.125 C-1.99542969 10.09632813 -1.80335938 9.06765625 -1.60546875 8.0078125 C-1.40566406 7.01523437 -1.20585937 6.02265625 -1 5 C-0.81050781 4.04867188 -0.62101562 3.09734375 -0.42578125 2.1171875 C-0.28527344 1.41851562 -0.14476562 0.71984375 0 0 Z " fill="#141C1D" transform="translate(476,433)"/>
<path d="M0 0 C0.66 0.33 1.32 0.66 2 1 C2 2.65 2 4.3 2 6 C1.01 6.495 1.01 6.495 0 7 C-0.33 6.34 -0.66 5.68 -1 5 C-1.825 5.928125 -2.65 6.85625 -3.5 7.8125 C-3.9640625 8.33457031 -4.428125 8.85664063 -4.90625 9.39453125 C-6.28151241 11.089448 -6.28151241 11.089448 -6 14 C-9.09354597 14.99435406 -10.90279155 14.87840996 -14 14 C-13.40832031 13.49210937 -12.81664062 12.98421875 -12.20703125 12.4609375 C-7.71934051 8.55159516 -3.64708733 4.70591913 0 0 Z " fill="#171F20" transform="translate(459,476)"/>
<path d="M0 0 C0.33 0 0.66 0 1 0 C0.98839844 1.1859375 0.97679687 2.371875 0.96484375 3.59375 C0.89497099 14.11287596 1.18975593 24.51023298 2 35 C1.67 35 1.34 35 1 35 C0.46340922 32.18971946 -0.0544305 29.37795938 -0.5625 26.5625 C-0.78969727 25.3878418 -0.78969727 25.3878418 -1.02148438 24.18945312 C-2.02039225 18.54446213 -1.89114569 13.64767983 -1 8 C-0.84337891 6.69869141 -0.84337891 6.69869141 -0.68359375 5.37109375 C-0.45572917 3.58072917 -0.22786458 1.79036458 0 0 Z " fill="#151D1E" transform="translate(332,99)"/>
<path d="M0 0 C0.33 0 0.66 0 1 0 C1 10.23 1 20.46 1 31 C-1.72981795 28.27018205 -1.84160631 25.70871023 -2 22 C-1.83591552 18.17065185 -1.46172038 14.3736908 -1.0625 10.5625 C-0.96259766 9.54478516 -0.86269531 8.52707031 -0.75976562 7.47851562 C-0.51391025 4.98483969 -0.26047263 2.49218424 0 0 Z " fill="#141C1D" transform="translate(212,178)"/>
<path d="M0 0 C0.33 0 0.66 0 1 0 C1 8.25 1 16.5 1 25 C0.34 23.68 -0.32 22.36 -1 21 C-1.66 20.34 -2.32 19.68 -3 19 C-3.046875 17.1875 -3.046875 17.1875 -2.75 15 C-2.64300781 14.20722656 -2.53601563 13.41445312 -2.42578125 12.59765625 C-1.73344334 8.37375985 -0.89973774 4.18421727 0 0 Z " fill="#151D1E" transform="translate(332,165)"/>
<path d="M0 0 C5.94 0.66 11.88 1.32 18 2 C13.57129086 5.32153186 12.53391318 5.3460174 7.25 5.1875 C6.07953125 5.16042969 4.9090625 5.13335937 3.703125 5.10546875 C2.81109375 5.07066406 1.9190625 5.03585937 1 5 C1.33 4.01 1.66 3.02 2 2 C1.34 1.34 0.68 0.68 0 0 Z " fill="#151D1E" transform="translate(404,446)"/>
<path d="M0 0 C0.66 0 1.32 0 2 0 C2.53030068 2.43578787 3.04952312 4.87305975 3.5625 7.3125 C3.71396484 8.00279297 3.86542969 8.69308594 4.02148438 9.40429688 C4.71761569 12.75544066 5.10155309 14.69534072 4 18 C3.67 17.34 3.34 16.68 3 16 C2.01 18.475 2.01 18.475 1 21 C0.67 21 0.34 21 0 21 C0 14.07 0 7.14 0 0 Z " fill="#151D1E" transform="translate(125,407)"/>
<path d="M0 0 C5.41798672 0.69165788 10.6822785 1.75799248 16 3 C16 3.33 16 3.66 16 4 C13.06225537 4.05390357 10.12549768 4.0936255 7.1875 4.125 C6.35412109 4.14175781 5.52074219 4.15851562 4.66210938 4.17578125 C3.85966797 4.18222656 3.05722656 4.18867187 2.23046875 4.1953125 C1.12288208 4.21102295 1.12288208 4.21102295 -0.00708008 4.22705078 C-2 4 -2 4 -5 2 C-3.35 1.67 -1.7 1.34 0 1 C0 0.67 0 0.34 0 0 Z " fill="#151D1E" transform="translate(314,511)"/>
<path d="M0 0 C1.485 0.99 1.485 0.99 3 2 C3.29296875 4.3828125 3.29296875 4.3828125 3.1875 7.125 C3.16042969 8.03507812 3.13335938 8.94515625 3.10546875 9.8828125 C3.07066406 10.58148438 3.03585938 11.28015625 3 12 C2.01 12.33 1.02 12.66 0 13 C0 8.71 0 4.42 0 0 Z " fill="#1E2829" transform="translate(24,448)"/>
<path d="M0 0 C0.33 0.99 0.66 1.98 1 3 C-3.95 3 -8.9 3 -14 3 C-4.8 -1.6 -4.8 -1.6 0 0 Z " fill="#151D1E" transform="translate(405,512)"/>
<path d="M0 0 C2.12046792 3.53411321 2.53199289 6.94393835 3 11 C1.02 11.99 1.02 11.99 -1 13 C-1.22151549 11.20991533 -1.42682213 9.41781838 -1.625 7.625 C-1.74101562 6.62726563 -1.85703125 5.62953125 -1.9765625 4.6015625 C-1.98429688 3.74304688 -1.99203125 2.88453125 -2 2 C-1.34 1.34 -0.68 0.68 0 0 Z " fill="#151D1E" transform="translate(214,406)"/>
<path d="M0 0 C2.09350689 3.4019487 2.17942163 6.05272412 2 10 C0.68 10.33 -0.64 10.66 -2 11 C-1.125 3.375 -1.125 3.375 0 0 Z " fill="#161E1F" transform="translate(211,138)"/>
<path d="M0 0 C1.98 0.99 1.98 0.99 4 2 C4 4.31 4 6.62 4 9 C2.68 9 1.36 9 0 9 C0 6.03 0 3.06 0 0 Z " fill="#1F292A" transform="translate(24,10)"/>
<path d="M0 0 C0.66 0.33 1.32 0.66 2 1 C2 3.31 2 5.62 2 8 C1.401875 7.79375 0.80375 7.5875 0.1875 7.375 C-2.28450846 6.69328085 -2.28450846 6.69328085 -5 9 C-3.50163895 5.88801935 -1.80066242 2.9465385 0 0 Z " fill="#161F20" transform="translate(67,427)"/>
<path d="M0 0 C-0.99 0.495 -0.99 0.495 -2 1 C-1.01 1.99 -0.02 2.98 1 4 C-0.11375 3.979375 -1.2275 3.95875 -2.375 3.9375 C-5.83215921 3.73619282 -5.83215921 3.73619282 -8 5 C-8.66 4.34 -9.32 3.68 -10 3 C-3.375 -1.125 -3.375 -1.125 0 0 Z " fill="#161E1F" transform="translate(269,79)"/>
<path d="M0 0 C0.33 0 0.66 0 1 0 C1 2.31 1 4.62 1 7 C0.401875 7.12375 -0.19625 7.2475 -0.8125 7.375 C-3.26231348 7.95475985 -3.26231348 7.95475985 -6 10 C-4.63201951 6.0100569 -2.79608023 3.15686477 0 0 Z " fill="#161F20" transform="translate(228,108)"/>
<path d="M0 0 C1.32 0 2.64 0 4 0 C4 0.66 4 1.32 4 2 C4.99 2.33 5.98 2.66 7 3 C3.0186217 4.3271261 -0.85045227 4.06915913 -5 4 C-5.33 3.34 -5.66 2.68 -6 2 C-4.02 1.67 -2.04 1.34 0 1 C0 0.67 0 0.34 0 0 Z " fill="#141C1D" transform="translate(159,447)"/>
<path d="M0 0 C0.33 0 0.66 0 1 0 C1.19534474 2.41626418 1.38153404 4.83265229 1.5625 7.25 C1.61857422 7.93191406 1.67464844 8.61382812 1.73242188 9.31640625 C1.98186254 12.7420581 2.13879745 15.72701177 1 19 C-0.700773 12.26718787 -1.10765663 6.86747109 0 0 Z " fill="#141C1D" transform="translate(483,155)"/>
<path d="M0 0 C-5.28 0 -10.56 0 -16 0 C-16 -0.66 -16 -1.32 -16 -2 C-10.38362811 -3.57960459 -4.91201114 -3.27467409 0 0 Z " fill="#141D1E" transform="translate(294,19)"/>
<path d="M0 0 C0.86882812 0.18046875 1.73765625 0.3609375 2.6328125 0.546875 C4.875 1.25 4.875 1.25 6.875 3.25 C4.77051062 3.10890014 2.6664123 2.96195825 0.5625 2.8125 C-0.60925781 2.73128906 -1.78101563 2.65007812 -2.98828125 2.56640625 C-6.125 2.25 -6.125 2.25 -9.125 1.25 C-5.76260354 -0.84563315 -3.83003656 -0.84603793 0 0 Z " fill="#151D1E" transform="translate(452.125,72.75)"/>
<path d="M0 0 C3.08089673 2.77280706 4.68775452 5.06326356 6 9 C4.35 9 2.7 9 1 9 C0.67 6.03 0.34 3.06 0 0 Z " fill="#161E1F" transform="translate(284,314)"/>
<path d="M0 0 C1.32 0.66 2.64 1.32 4 2 C3.34 3.32 2.68 4.64 2 6 C0.35 5.01 -1.3 4.02 -3 3 C-2.01 2.01 -1.02 1.02 0 0 Z " fill="#151E1F" transform="translate(58,438)"/>
<path d="M0 0 C0.66 0.33 1.32 0.66 2 1 C2 4.63 2 8.26 2 12 C-1.31037029 7.58617295 -1.39887707 6.28512118 -1 1 C-0.67 0.67 -0.34 0.34 0 0 Z " fill="#141C1D" transform="translate(323,83)"/>
<path d="M0 0 C1.3303125 0.2475 1.3303125 0.2475 2.6875 0.5 C5.53596892 0.92995757 8.13004802 1.08441035 11 1 C7.73386305 2.91302307 5.00554752 3.35674661 1.25 3.625 C0.26515625 3.69976563 -0.7196875 3.77453125 -1.734375 3.8515625 C-2.48203125 3.90054688 -3.2296875 3.94953125 -4 4 C-2.68 3.34 -1.36 2.68 0 2 C0 1.34 0 0.68 0 0 Z " fill="#151D1E" transform="translate(402,531)"/>
<path d="M0 0 C0.886875 -0.01417969 1.77375 -0.02835938 2.6875 -0.04296875 C5 0.1875 5 0.1875 7 2.1875 C5.23086176 2.40976864 3.45955629 2.61483873 1.6875 2.8125 C0.70136719 2.92851563 -0.28476562 3.04453125 -1.30078125 3.1640625 C-4 3.1875 -4 3.1875 -7 1.1875 C-4.52224905 -0.05137548 -2.76346293 0.02008331 0 0 Z " fill="#151D1E" transform="translate(272,522.8125)"/>
<path d="M0 0 C1.23556641 0.01740234 1.23556641 0.01740234 2.49609375 0.03515625 C3.32238281 0.04417969 4.14867187 0.05320312 5 0.0625 C5.63808594 0.07410156 6.27617187 0.08570313 6.93359375 0.09765625 C7.26359375 0.75765625 7.59359375 1.41765625 7.93359375 2.09765625 C4.68359375 3.28515625 4.68359375 3.28515625 0.93359375 4.09765625 C-1.50390625 2.72265625 -1.50390625 2.72265625 -3.06640625 1.09765625 C-2.06640625 0.09765625 -2.06640625 0.09765625 0 0 Z " fill="#172021" transform="translate(413.06640625,330.90234375)"/>
<path d="M0 0 C0.66 0.33 1.32 0.66 2 1 C2 3.97 2 6.94 2 10 C1.34 10 0.68 10 0 10 C-1.125 2.25 -1.125 2.25 0 0 Z " fill="#141C1D" transform="translate(219,121)"/>
<path d="M0 0 C2.67927341 4.01891012 2.15601248 6.24161923 2 11 C0.4375 10 0.4375 10 -1 8 C-0.96726452 5.23385218 -0.49404328 2.73969453 0 0 Z " fill="#151D1E" transform="translate(467,372)"/>
<path d="M0 0 C0.66 0 1.32 0 2 0 C2 2.64 2 5.28 2 8 C1.01 7.67 0.02 7.34 -1 7 C-2 4 -2 4 -1.0625 1.8125 C-0.5365625 0.9153125 -0.5365625 0.9153125 0 0 Z " fill="#1E2729" transform="translate(321,203)"/>
<path d="M0 0 C2.97 0 5.94 0 9 0 C8.34 1.32 7.68 2.64 7 4 C4.69 3.01 2.38 2.02 0 1 C0 0.67 0 0.34 0 0 Z " fill="#151E1F" transform="translate(166,448)"/>
<path d="M0 0 C3 3.75 3 3.75 3 6 C2.34 6 1.68 6 1 6 C0.67 6.66 0.34 7.32 0 8 C-1.09658936 4.71023192 -0.79953138 3.28696233 0 0 Z " fill="#161E1F" transform="translate(222,430)"/>
<path d="M0 0 C1.76451981 3.25917189 2.0950302 5.29382234 2 9 C2.33 9.99 2.66 10.98 3 12 C2.34 12.66 1.68 13.32 1 14 C-0.04976964 10.85069107 -0.10131595 8.61185544 -0.0625 5.3125 C-0.05347656 4.31863281 -0.04445313 3.32476562 -0.03515625 2.30078125 C-0.02355469 1.54152344 -0.01195312 0.78226563 0 0 Z " fill="#141C1D" transform="translate(381,179)"/>
<path d="M0 0 C0.66 0 1.32 0 2 0 C2 0.66 2 1.32 2 2 C2.66 2 3.32 2 4 2 C2.25 6.875 2.25 6.875 0 8 C0 5.36 0 2.72 0 0 Z " fill="#171F20" transform="translate(509,467)"/>
<path d="M0 0 C1.98 0.66 3.96 1.32 6 2 C4.6875 3.5 4.6875 3.5 3 5 C2.01 5 1.02 5 0 5 C0 3.35 0 1.7 0 0 Z " fill="#161E1F" transform="translate(381,438)"/>
<path d="M0 0 C0.66 0 1.32 0 2 0 C2 1.98 2 3.96 2 6 C1.01 6.33 0.02 6.66 -1 7 C-2 4 -2 4 -1.0625 1.8125 C-0.5365625 0.9153125 -0.5365625 0.9153125 0 0 Z " fill="#141C1D" transform="translate(275,395)"/>
<path d="M0 0 C1.32 0.33 2.64 0.66 4 1 C3.67 1.99 3.34 2.98 3 4 C0.69 4 -1.62 4 -4 4 C-2.68 3.34 -1.36 2.68 0 2 C0 1.34 0 0.68 0 0 Z " fill="#151D1E" transform="translate(351,247)"/>
<path d="M0 0 C0.66 0.33 1.32 0.66 2 1 C0.68 2.65 -0.64 4.3 -2 6 C-3.32 5.67 -4.64 5.34 -6 5 C-5.195625 4.360625 -4.39125 3.72125 -3.5625 3.0625 C-1.7249496 1.59396498 -1.7249496 1.59396498 0 0 Z " fill="#172021" transform="translate(441,493)"/>
<path d="M0 0 C2.31 0 4.62 0 7 0 C7 0.99 7 1.98 7 3 C6.01 3.33 5.02 3.66 4 4 C2.68 2.68 1.36 1.36 0 0 Z " fill="#161E1F" transform="translate(446,355)"/>
<path d="M0 0 C0.66 0 1.32 0 2 0 C2.1953125 6.0546875 2.1953125 6.0546875 2 8 C1.34 8.66 0.68 9.32 0 10 C-1.231394 6.30581799 -0.64432764 3.7943739 0 0 Z " fill="#141C1D" transform="translate(251,355)"/>
<path d="M0 0 C0 1.32 0 2.64 0 4 C-1.32 4.33 -2.64 4.66 -4 5 C-4 3.68 -4 2.36 -4 1 C-2 0 -2 0 0 0 Z " fill="#171F20" transform="translate(237,331)"/>
<path d="M0 0 C2.97 0 5.94 0 9 0 C8.34 0.66 7.68 1.32 7 2 C4.875 1.625 4.875 1.625 3 1 C3 1.66 3 2.32 3 3 C1.68 2.67 0.36 2.34 -1 2 C-0.67 1.34 -0.34 0.68 0 0 Z " fill="#141C1D" transform="translate(377,315)"/>
</svg>
