<?xml version="1.0" encoding="UTF-8"?>
<svg version="1.1" xmlns="http://www.w3.org/2000/svg" width="550" height="550">
<path d="M0 0 C4.91438052 -0.0053203 9.82873207 -0.01584935 14.74309832 -0.02863538 C21.47526622 -0.04592617 28.20735547 -0.05151239 34.93954951 -0.04982412 C37.41960338 -0.05065312 39.89965895 -0.05472287 42.37970072 -0.06251562 C64.9687034 -0.12807401 87.98045045 0.15109203 110.10488421 5.17937243 C110.83513811 5.3427611 111.56539202 5.50614977 112.31777483 5.67448962 C130.57121316 9.8624074 148.29244444 16.02307953 164.10488421 26.17937243 C164.96855608 26.73109118 165.83222796 27.28280993 166.72207171 27.85124743 C194.41921901 46.43399801 212.67973141 73.20830052 219.66909319 105.81120837 C221.24366199 114.1370297 221.46393357 122.35031104 221.41738421 130.80437243 C221.41522906 131.50969103 221.4130739 132.21500964 221.41085345 132.94170153 C221.35709855 143.92075051 220.85236446 154.50778691 218.10488421 165.17937243 C217.798893 166.37578356 217.798893 166.37578356 217.48672014 167.59636462 C212.81875348 185.29658756 205.63560324 210.98185095 189.10488421 221.17937243 C183.81891499 220.84915019 179.66550368 219.29712777 175.03457171 216.87077868 C174.39045336 216.5439963 173.74633501 216.21721392 173.08269793 215.88052905 C171.04344326 214.8437433 169.01154888 213.7934412 166.97988421 212.74187243 C164.93974084 211.69671504 162.89816541 210.65443548 160.85564715 209.61392748 C159.59066618 208.96836447 158.32728236 208.31965884 157.06579119 207.66730273 C153.80214859 205.98967811 150.53751211 204.47801902 147.10488421 203.17937243 C146.70836815 197.62814761 147.16602247 194.69469942 149.89394671 189.74187243 C163.21929092 161.54372469 163.50168478 123.50002589 153.67910296 94.34343493 C149.22388645 82.15546625 143.88611749 70.84437009 135.10488421 61.17937243 C131.10488421 56.56991534 131.10488421 56.56991534 131.10488421 53.17937243 C130.04527483 52.82745837 130.04527483 52.82745837 128.96425921 52.46843493 C125.57721221 50.94148751 123.20377338 48.93828746 120.35488421 46.55437243 C77.25279496 12.27158594 -0.64624813 22.63089149 -44.89511579 22.17937243 C-44.89511579 99.06937243 -44.89511579 175.95937243 -44.89511579 255.17937243 C1.21667314 254.61370234 1.21667314 254.61370234 47.23379046 253.06999743 C55.91231629 252.96230183 61.0588768 256.60023326 67.85488421 261.61687243 C74.90275193 266.72724409 82.12242413 271.44014922 89.59609514 275.90569079 C98.63104796 281.43429558 103.99714113 287.99664089 109.35488421 297.05437243 C110.49147383 298.93284331 111.62951534 300.81043642 112.76894671 302.68718493 C113.33001116 303.6156322 113.89107561 304.54407946 114.46914202 305.50066149 C116.8224137 309.35440729 119.26431189 313.14680846 121.72988421 316.92937243 C122.40059954 317.96118639 122.40059954 317.96118639 123.08486468 319.01384509 C124.42300332 321.07024576 125.7635076 323.12508264 127.10488421 325.17937243 C133.02218105 334.24158692 138.85762909 343.34402452 144.54238421 352.55437243 C145.08733538 353.43584948 145.63228655 354.31732653 146.19375139 355.22551501 C150.5571462 362.28535347 150.5571462 362.28535347 152.6727553 365.73845446 C158.87235554 375.84799629 165.2848157 385.48561451 172.84072405 394.63445055 C174.0522784 396.11508321 175.22986249 397.62331739 176.40566546 399.13249743 C195.30749882 423.17106348 220.47669201 433.94677354 250.10488421 438.17937243 C250.10488421 443.45937243 250.10488421 448.73937243 250.10488421 454.17937243 C242.03664917 454.22492796 233.96851756 454.26146113 225.90018755 454.28299677 C222.15196412 454.29334342 218.40383477 454.30733117 214.65566546 454.33025134 C211.02462403 454.35231109 207.39367191 454.36400917 203.76256853 454.36912692 C201.73349595 454.37450955 199.70445827 454.39006625 197.67544085 454.40596545 C175.43331419 454.40859016 151.43090824 451.18436305 134.10488421 436.17937243 C133.46293108 435.68050524 132.82097796 435.18163805 132.15957171 434.66765368 C119.47400687 424.47297911 111.24125812 409.42298003 102.76552874 395.8258568 C100.40252475 392.06005804 97.97413911 388.33847197 95.54238421 384.61687243 C90.92073763 377.51299418 86.45037728 370.32040376 82.00429827 363.10564196 C78.47191008 357.37617908 74.89999301 351.67422242 71.29238421 345.99187243 C65.12941105 336.27302051 59.10886966 326.46791653 53.08925921 316.65984118 C50.52811726 312.4883595 47.9563531 308.32386763 45.37050921 304.16765368 C44.78648333 303.22841052 44.20245745 302.28916735 43.60073382 301.32146227 C42.51996411 299.58502039 41.43758296 297.84957985 40.35317522 296.11540759 C37.92078075 292.2047823 35.53640063 288.2701859 33.24160296 284.27702868 C32.82998919 283.56167956 32.41837542 282.84633044 31.9942885 282.10930407 C31.10488421 280.17937243 31.10488421 280.17937243 31.10488421 277.17937243 C30.44488421 277.50937243 29.78488421 277.83937243 29.10488421 278.17937243 C26.76638887 278.27157893 24.42517379 278.29686445 22.08486468 278.29289782 C21.3628084 278.29304385 20.64075213 278.29318987 19.89681536 278.29334033 C17.5052038 278.2926425 15.1136697 278.28485618 12.72207171 278.27702868 C11.06583231 278.27516404 9.40959237 278.27374035 7.75335222 278.27274096 C3.39020812 278.26891942 -0.97290279 278.25909221 -5.33603376 278.24803698 C-9.78671279 278.23781507 -14.23739717 278.23324167 -18.68808454 278.22820055 C-27.42377687 278.21746963 -36.15944221 278.20039755 -44.89511579 278.17937243 C-44.83440715 293.6182953 -44.75678547 309.05706593 -44.65940088 324.49579775 C-44.61456465 331.66537273 -44.57512248 338.83489938 -44.54868025 346.00456774 C-44.52560096 352.25858955 -44.49209365 358.51245685 -44.44641423 364.76635587 C-44.42261467 368.07330443 -44.40535596 371.38007074 -44.39750189 374.68710101 C-44.38781573 378.39210978 -44.35970125 382.09657041 -44.32748884 385.80144274 C-44.32892393 386.88038805 -44.33035902 387.95933337 -44.33183759 389.07097399 C-44.20220649 399.68073297 -41.8892779 409.28573032 -36.95761579 418.67937243 C-36.62310407 419.35484118 -36.28859236 420.03030993 -35.94394392 420.72624743 C-32.47389414 427.51925431 -28.17689409 431.53344098 -20.89511579 434.17937243 C-12.98957356 436.15139511 -5.00795744 437.46771965 3.10488421 438.17937243 C3.10488421 443.12937243 3.10488421 448.07937243 3.10488421 453.17937243 C-46.72511579 453.17937243 -96.55511579 453.17937243 -147.89511579 453.17937243 C-147.89511579 448.22937243 -147.89511579 443.27937243 -147.89511579 438.17937243 C-145.85324079 437.93187243 -143.81136579 437.68437243 -141.70761579 437.42937243 C-131.38965733 435.9359837 -122.15649167 433.78847313 -113.89511579 427.17937243 C-113.23511579 427.17937243 -112.57511579 427.17937243 -111.89511579 427.17937243 C-111.89511579 426.51937243 -111.89511579 425.85937243 -111.89511579 425.17937243 C-110.91061691 424.16410796 -109.90842314 423.16588559 -108.89511579 422.17937243 C-102.17763639 411.05354717 -101.44748301 398.35179229 -101.52089399 385.63760912 C-101.5181458 384.22823139 -101.51408726 382.81885572 -101.50885034 381.40948504 C-101.4983658 377.57819483 -101.50632512 373.74714141 -101.51760083 369.91586185 C-101.52650631 365.76788986 -101.51798117 361.61994677 -101.51173872 357.47197497 C-101.50228566 349.36278451 -101.50881971 341.2536835 -101.52100166 333.14449971 C-101.53467307 323.68900634 -101.53297929 314.23353389 -101.53086833 304.77803314 C-101.52768358 287.9008083 -101.53931686 271.02362575 -101.55893415 254.14641345 C-101.57793909 237.79158264 -101.58502025 221.43680138 -101.57944196 205.08196032 C-101.57337636 187.24575766 -101.57357533 169.40957674 -101.5849278 151.57337588 C-101.58613501 149.66948446 -101.587341 147.76559303 -101.58854574 145.86170161 C-101.58914928 144.92509909 -101.58975282 143.98849658 -101.59037464 143.02351217 C-101.59424447 136.441592 -101.59386381 129.85967995 -101.59195989 123.27775919 C-101.58983199 115.25108991 -101.59510704 107.22446389 -101.60957345 99.19780677 C-101.61678847 95.10706651 -101.62091931 91.01638908 -101.61633009 86.92564356 C-101.61222321 83.17343149 -101.61750468 79.42134855 -101.62995616 75.66915596 C-101.6342236 73.68517127 -101.62882754 71.70117285 -101.62296689 69.71719223 C-101.69421723 54.99495915 -103.08827679 37.3799829 -113.89511579 26.17937243 C-123.743709 19.26374585 -136.24784788 17.12058375 -147.89511579 15.17937243 C-147.89511579 10.55937243 -147.89511579 5.93937243 -147.89511579 1.17937243 C-98.59819464 0.42148543 -49.30240647 0.0492682 0 0 Z " fill="#E0D6D4" transform="translate(171.8951157927513,8.820627570152283)"/>
<path d="M0 0 C5.55310406 3.78766635 13.02243015 9.98560073 14.66015625 16.7109375 C14.82837891 17.84402344 14.82837891 17.84402344 15 19 C13.88882813 19.70125 12.77765625 20.4025 11.6328125 21.125 C-6.94244492 32.93251177 -22.17179396 44.20347095 -27.9375 66.5625 C-30.86899453 81.52759862 -29.27974621 98.08441621 -23 112 C-22.60167969 112.89074219 -22.20335937 113.78148437 -21.79296875 114.69921875 C-12.21675111 134.0448342 6.44462152 145.10543997 24.85253906 154.85644531 C26.83765949 155.91355128 28.80746989 156.99373327 30.7734375 158.0859375 C50.87286965 169.18268157 72.41689447 177.29561006 93.70874023 185.76245117 C111.33561551 192.78074537 128.71808633 200.17633106 146 208 C148.32601522 209.04564741 150.65224569 210.09081062 152.97883606 211.13517761 C172.09984552 219.85608866 189.32910957 230.64191465 204.74609375 244.9453125 C206.11523805 246.19344058 207.51757052 247.40790707 208.97265625 248.5546875 C229.90242111 265.14378244 240.60882351 293.3213881 244 319 C244.48293752 324.43095023 244.48564004 329.86446651 244.4375 335.3125 C244.43512329 336.0272348 244.43274658 336.7419696 244.43029785 337.47836304 C244.3702824 349.057635 243.28902037 359.86529561 240 371 C239.566875 372.62228516 239.566875 372.62228516 239.125 374.27734375 C236.62766715 382.76158616 232.45599099 390.41172149 228 398 C227.38898438 399.04800781 226.77796875 400.09601563 226.1484375 401.17578125 C215.79150209 417.41265011 200.57507634 431.31013491 184 441 C183.26313965 441.43103027 182.5262793 441.86206055 181.76708984 442.30615234 C159.60913502 455.02585466 135.26850955 462.62873168 110 466 C109.2560498 466.10441406 108.51209961 466.20882813 107.74560547 466.31640625 C44.74069205 474.84115583 -29.12900694 463.22641907 -83.01171875 428.6328125 C-86.013292 426.16786629 -88.64083878 423.99319 -89.36119843 419.99550438 C-89.49249978 417.49782107 -89.49455552 415.02895492 -89.45410156 412.52807617 C-89.45468567 411.58124969 -89.45526978 410.63442322 -89.45587158 409.65890503 C-89.45309002 406.53655034 -89.42199399 403.41515619 -89.390625 400.29296875 C-89.38316289 398.12535626 -89.37746981 395.95773701 -89.37347412 393.79011536 C-89.35821559 388.09027417 -89.31893143 382.39084193 -89.2746582 376.69116211 C-89.23371051 370.87294039 -89.21546415 365.05465247 -89.1953125 359.23632812 C-89.15243776 347.82403927 -89.08418341 336.41205366 -89 325 C-83.72 325 -78.44 325 -73 325 C-72.64808594 326.39089844 -72.29617187 327.78179687 -71.93359375 329.21484375 C-66.06526491 351.88527327 -57.67733859 372.51347916 -43 391 C-42.59023926 391.5165918 -42.18047852 392.03318359 -41.75830078 392.56542969 C-28.01662555 409.73615477 -11.86335378 421.79874803 8 431 C8.99515625 431.47308594 9.9903125 431.94617188 11.015625 432.43359375 C23.49037081 438.02632197 37.46774787 441.28856811 51 443 C51.8146875 443.11085938 52.629375 443.22171875 53.46875 443.3359375 C88.60244279 447.34811847 127.65422538 440.98919254 156.2421875 419.27734375 C173.82886549 404.75463374 184.82888026 384.73277743 188 362 C189.08721821 348.55269877 188.34667221 335.79694615 184 323 C183.649375 321.95972656 183.29875 320.91945313 182.9375 319.84765625 C168.78618745 282.45477831 132.08478913 266.75457081 98.13671875 251.4296875 C79.4727973 243.04624658 60.58205811 235.27265735 41.59642029 227.65177917 C21.50887725 219.58680521 1.55712998 211.29331289 -18 202 C-19.18916016 201.43539062 -19.18916016 201.43539062 -20.40234375 200.859375 C-50.74427142 186.34573195 -65.36603667 167.23708033 -77 136 C-85.47510939 110.05901758 -84.18605509 81.24937809 -72.3671875 56.59375 C-68.82424675 49.79384579 -65.00460772 42.84971298 -60 37 C-59.34 37 -58.68 37 -58 37 C-57.77570313 36.45472656 -57.55140625 35.90945312 -57.3203125 35.34765625 C-55.59496287 32.27980085 -53.33888141 29.91386185 -50.875 27.4375 C-50.35873047 26.91808838 -49.84246094 26.39867676 -49.31054688 25.86352539 C-43.35190615 20.07905762 -36.56514985 15.58102662 -29.6184082 11.07788086 C-28.31585132 10.21036108 -27.0608739 9.27162931 -25.82421875 8.3125 C-23.73350042 6.80825726 -21.72164502 5.96641432 -19.3125 5.0625 C-15.11872763 3.46663972 -11.1105732 1.65805664 -7.10546875 -0.36328125 C-4.33227239 -1.20192876 -2.74588486 -0.88507295 0 0 Z " fill="#E0D6D4" transform="translate(287,71)"/>
<path d="M0 0 C11.17829706 -0.35356006 21.58480611 0.54862157 32.5625 2.625 C33.66393845 2.82707565 33.66393845 2.82707565 34.78762817 3.03323364 C59.22902728 7.51842449 85.11212703 12.81851264 106 27 C106.59529038 27.39139727 107.19058077 27.78279453 107.80391026 28.18605232 C110.50809453 30.18160606 112.62383846 31.77534493 113.63366508 35.06299973 C113.86081197 37.53521671 113.86673677 39.92014396 113.79467773 42.40185547 C113.79569992 43.32932083 113.79672211 44.25678619 113.79777527 45.21235657 C113.79291456 48.26515032 113.73854542 51.31491914 113.68359375 54.3671875 C113.67053216 56.48851894 113.66057064 58.60987155 113.65357971 60.73123169 C113.62689865 66.30487742 113.55817436 71.87723887 113.48065186 77.45037842 C113.40894454 83.14122138 113.37705212 88.83227262 113.34179688 94.5234375 C113.26680468 105.68285482 113.14738888 116.84132047 113 128 C108.38 128 103.76 128 99 128 C98.52691406 126.29457031 98.05382812 124.58914062 97.56640625 122.83203125 C92.27472566 104.14243875 86.73247762 84.80921732 75 69 C74.60055176 68.4529541 74.20110352 67.9059082 73.78955078 67.34228516 C59.11838581 47.3836258 39.89106825 33.51445612 16.05859375 26.43359375 C9.263815 23.2488124 6.63181833 16.76437414 3.6875 10.25 C3.32849609 9.48300781 2.96949219 8.71601562 2.59960938 7.92578125 C0 2.29081845 0 2.29081845 0 0 Z " fill="#E0D6D4" transform="translate(388,61)"/>
<path d="M0 0 C0.66 0 1.32 0 2 0 C2 76.89 2 153.78 2 233 C15.86 233 29.72 233 44 233 C51.37987553 233.12779005 58.74951559 233.26608191 66.125 233.5 C67.81248419 233.54872774 69.49998451 233.59689976 71.1875 233.64453125 C75.12521143 233.75678505 79.06264342 233.8759472 83 234 C82.67 234.66 82.34 235.32 82 236 C72.93283094 236.1545879 63.8655854 236.3027571 54.79818249 236.4429636 C50.58683254 236.50827921 46.37553999 236.5757204 42.16430664 236.64819336 C38.0924651 236.71818635 34.02056797 236.78236853 29.94857216 236.84269524 C28.40299527 236.86658104 26.85744805 236.89248294 25.31194115 236.92053413 C23.13012705 236.95977333 20.94831299 236.9915269 18.76635742 237.02172852 C16.91103645 237.05170677 16.91103645 237.05170677 15.01823425 237.08229065 C10.00022594 236.97952532 4.99844824 236.45440439 0 236 C0 158.12 0 80.24 0 0 Z " fill="#E9E1E0" transform="translate(125,31)"/>
<path d="M0 0 C14.85714286 -0.42857143 14.85714286 -0.42857143 22 3 C22 3.33 22 3.66 22 4 C16.39 4 10.78 4 5 4 C5 6.97 5 9.94 5 13 C5.99 12.67 6.98 12.34 8 12 C9.69176768 11.90786403 11.38696319 11.87371502 13.08123779 11.87301636 C14.13228195 11.87019653 15.18332611 11.86737671 16.26622009 11.86447144 C17.41941238 11.86649567 18.57260468 11.8685199 19.76074219 11.87060547 C20.97578934 11.86885315 22.19083649 11.86710083 23.44270325 11.86529541 C26.78022493 11.8616424 30.1176848 11.86250862 33.45520306 11.8656745 C36.95957712 11.86820937 40.46394858 11.86585678 43.96832275 11.86428833 C49.86641919 11.86246705 55.76450312 11.86486885 61.66259766 11.86962891 C68.44644077 11.8750412 75.23025368 11.87333094 82.01409602 11.8678025 C87.8572327 11.86323384 93.70036039 11.86263994 99.54349828 11.86524117 C103.02429144 11.86678735 106.50507052 11.86704448 109.98586273 11.86370468 C137.77762805 11.84056877 137.77762805 11.84056877 150 13 C150 13.66 150 14.32 150 15 C100.5 15 51 15 0 15 C0 10.05 0 5.1 0 0 Z " fill="#EAE2E1" transform="translate(24,447)"/>
<path d="M0 0 C1.16243729 -0.00315216 2.32487457 -0.00630432 3.52253723 -0.009552 C5.42696846 -0.00651566 5.42696846 -0.00651566 7.36987305 -0.00341797 C8.67176071 -0.00437469 9.97364838 -0.00533142 11.31498718 -0.00631714 C14.08337581 -0.00779573 16.85173229 -0.00563822 19.62011719 -0.00097656 C23.1355188 0.00465951 26.65084302 0.00148223 30.16624165 -0.00454903 C33.54662455 -0.0090835 36.92698796 -0.00588221 40.30737305 -0.00341797 C41.55472733 -0.0054422 42.8020816 -0.00746643 44.0872345 -0.009552 C51.63046358 0.01031037 59.06339155 0.37274651 66.5690918 1.12939453 C66.5690918 2.11939453 66.5690918 3.10939453 66.5690918 4.12939453 C43.1390918 4.12939453 19.7090918 4.12939453 -4.4309082 4.12939453 C-4.4102832 12.27626953 -4.3896582 20.42314453 -4.3684082 28.81689453 C-4.34166045 50.94706976 -4.54198606 73.06537794 -4.9309082 95.19189453 C-4.94286602 95.87252834 -4.95482384 96.55316216 -4.96714401 97.25442123 C-5.11355853 105.54623542 -5.26799968 113.83788767 -5.4309082 122.12939453 C-5.7609082 122.12939453 -6.0909082 122.12939453 -6.4309082 122.12939453 C-6.45423751 106.37022709 -6.47188753 90.61106429 -6.48272038 74.85188389 C-6.48788327 67.53512051 -6.49492583 60.21836784 -6.50634766 52.90161133 C-6.51629471 46.52656435 -6.52276168 40.15152512 -6.5249967 33.7764706 C-6.52630377 30.39891439 -6.52938939 27.02138037 -6.53663826 23.64383125 C-6.54384433 19.8793211 -6.54489933 16.11485768 -6.54443359 12.3503418 C-6.54982651 10.65857567 -6.54982651 10.65857567 -6.55532837 8.93263245 C-6.5539537 7.91314514 -6.55257904 6.89365784 -6.55116272 5.84327698 C-6.55208451 4.95190316 -6.55300631 4.06052935 -6.55395603 3.1421442 C-6.30132489 -0.99025907 -3.51265111 0.0027199 0 0 Z " fill="#EAE1E0" transform="translate(131.430908203125,282.87060546875)"/>
<path d="M0 0 C0.99 0.66 1.98 1.32 3 2 C3.33 1.34 3.66 0.68 4 0 C16.59540151 -0.04628559 29.19078287 -0.08184998 41.78625202 -0.10362434 C47.6344687 -0.11407351 53.4826273 -0.1282534 59.33081055 -0.15087891 C64.97178406 -0.17256684 70.61270163 -0.18456008 76.25371361 -0.18975449 C78.40875314 -0.19345753 80.56378952 -0.20068837 82.71880531 -0.21146011 C85.73098051 -0.22592116 88.74292278 -0.2279802 91.75512695 -0.22705078 C92.65136276 -0.23424133 93.54759857 -0.24143188 94.47099304 -0.24884033 C95.29128998 -0.246091 96.11158691 -0.24334167 96.95674133 -0.24050903 C97.66928731 -0.24235262 98.38183329 -0.24419621 99.11597157 -0.24609566 C101 0 101 0 104 2 C99.14577181 4.53856893 94.49515755 4.26845227 89.16088867 4.22705078 C88.17504791 4.22734283 87.18920715 4.22763489 86.17349243 4.22793579 C82.92156104 4.22654472 79.66986002 4.2109938 76.41796875 4.1953125 C74.16067124 4.19158158 71.9033721 4.18873498 69.64607239 4.18673706 C63.70964067 4.17910682 57.77330706 4.15946345 51.83691406 4.1373291 C45.77735725 4.11685763 39.71778456 4.10773255 33.65820312 4.09765625 C21.77209235 4.07621707 9.88605434 4.04208838 -2 4 C-1.34 2.68 -0.68 1.36 0 0 Z " fill="#E9E1E0" transform="translate(129,27)"/>
<path d="M0 0 C5.07186004 -0.00538014 10.14369306 -0.01595957 15.21553963 -0.02863538 C22.10968652 -0.0456431 29.00376822 -0.05153652 35.89793557 -0.04982412 C38.46842943 -0.05066794 41.03892452 -0.05486368 43.60940713 -0.06251562 C47.13524621 -0.07222737 50.66085831 -0.06955496 54.18670052 -0.06354749 C55.23055193 -0.06916952 56.27440333 -0.07479154 57.3498866 -0.08058393 C58.29532551 -0.07638692 59.24076442 -0.07218992 60.21485299 -0.06786573 C61.03655386 -0.0684105 61.85825473 -0.06895526 62.70485562 -0.06951654 C64.69133919 0.17937243 64.69133919 0.17937243 66.69133919 2.17937243 C-2.93866081 2.17937243 -72.56866081 2.17937243 -144.30866081 2.17937243 C-143.97866081 5.47937243 -143.64866081 8.77937243 -143.30866081 12.17937243 C-144.29866081 12.50937243 -145.28866081 12.83937243 -146.30866081 13.17937243 C-147.29866081 12.51937243 -148.28866081 11.85937243 -149.30866081 11.17937243 C-149.60162956 8.79655993 -149.60162956 8.79655993 -149.49616081 6.05437243 C-149.46909049 5.1442943 -149.44202018 4.23421618 -149.41412956 3.29655993 C-149.37932487 2.59788805 -149.34452018 1.89921618 -149.30866081 1.17937243 C-99.54065001 0.40764552 -49.77358698 0.04881556 0 0 Z " fill="#E6DEDC" transform="translate(173.30866080522537,8.820627570152283)"/>
<path d="M0 0 C9.75379818 0.10785508 19.50752741 0.2205577 29.261199 0.33933926 C33.79089004 0.39435247 38.32058775 0.44773618 42.8503418 0.49731445 C47.22703822 0.54527882 51.60366276 0.59762996 55.98027229 0.65294075 C57.64467628 0.67322 59.30909986 0.69195543 60.97353935 0.70907402 C77.02841094 0.87605794 77.02841094 0.87605794 85 2 C85 2.99 85 3.98 85 5 C76.93178256 5.04676275 68.86362368 5.08208873 60.79530334 5.10362434 C57.04707991 5.11397099 53.29895056 5.12795874 49.55078125 5.15087891 C45.91973982 5.17293866 42.2887877 5.18463674 38.65768433 5.18975449 C36.62861175 5.19513712 34.59957407 5.21069382 32.57055664 5.22659302 C21.57573817 5.22789047 10.77117125 4.29198183 0 2 C0 1.34 0 0.68 0 0 Z " fill="#E9E1E0" transform="translate(337,458)"/>
<path d="M0 0 C4.25369861 4.25369861 4.25543799 9.63534827 4.265625 15.375 C4.26753845 16.06255371 4.2694519 16.75010742 4.27142334 17.45849609 C4.27277694 18.90397511 4.26913849 20.34946662 4.26074219 21.79492188 C4.25003035 23.99377022 4.26066507 26.19180173 4.2734375 28.390625 C4.27211576 29.80208512 4.26955306 31.21354473 4.265625 32.625 C4.26336914 33.89601562 4.26111328 35.16703125 4.25878906 36.4765625 C4.00174639 39.97622274 3.26249546 42.74032949 2 46 C1.67 46 1.34 46 1 46 C0.24322915 39.96416332 -0.13878273 34.10615896 -0.09765625 28.02734375 C-0.0962413 27.21882462 -0.09482635 26.41030548 -0.09336853 25.57728577 C-0.08783414 23.03065058 -0.0752946 20.48410797 -0.0625 17.9375 C-0.0574765 16.19596482 -0.05291509 14.45442825 -0.04882812 12.71289062 C-0.03788634 8.47522552 -0.02066826 4.23762837 0 0 Z " fill="#E8E0DE" transform="translate(389,116)"/>
<path d="M0 0 C0.99 0 1.98 0 3 0 C3.02686553 1.97909398 3.04633375 3.95828971 3.0625 5.9375 C3.07410156 7.03964844 3.08570313 8.14179688 3.09765625 9.27734375 C3 12 3 12 2 13 C1.84019563 15.44608998 1.74070553 17.86731058 1.68359375 20.31640625 C1.66281265 21.04746078 1.64203156 21.77851532 1.62062073 22.53172302 C1.55504976 24.87521656 1.49620568 27.21882539 1.4375 29.5625 C1.39432192 31.14779855 1.35070787 32.73308529 1.30664062 34.31835938 C1.1993608 38.21212037 1.0981151 42.10599772 1 46 C0.34 45.67 -0.32 45.34 -1 45 C-1.02467081 38.91276345 -1.04284604 32.82555583 -1.05493164 26.73828125 C-1.05996852 24.66633599 -1.06679825 22.5943943 -1.07543945 20.52246094 C-1.08753321 17.54881918 -1.09323467 14.57522431 -1.09765625 11.6015625 C-1.10281754 10.67131256 -1.10797882 9.74106262 -1.11329651 8.78262329 C-1.11337204 7.92188202 -1.11344757 7.06114075 -1.11352539 6.17431641 C-1.115746 5.41486725 -1.11796661 4.65541809 -1.12025452 3.87295532 C-1 2 -1 2 0 0 Z " fill="#EAE2E1" transform="translate(526,378)"/>
<path d="M0 0 C0.66 0 1.32 0 2 0 C2.8320582 5.72040011 3.12036664 11.22240116 3 17 C0.69 16.67 -1.62 16.34 -4 16 C-4.46450943 9.49686791 -3.32575612 5.5825192 0 0 Z " fill="#E9E0DF" transform="translate(323,196)"/>
<path d="M0 0 C0.763125 0.33 1.52625 0.66 2.3125 1 C1.9825 1.99 1.6525 2.98 1.3125 4 C-0.79159639 4.02701408 -2.89579178 4.04640223 -5 4.0625 C-6.17175781 4.07410156 -7.34351563 4.08570313 -8.55078125 4.09765625 C-11.6875 4 -11.6875 4 -14.6875 3 C-15.6775 3.495 -15.6775 3.495 -16.6875 4 C-17.3475 3.67 -18.0075 3.34 -18.6875 3 C-18.6875 2.34 -18.6875 1.68 -18.6875 1 C-13.00211616 -2.36318481 -6.1839199 -1.67699523 0 0 Z " fill="#E8DFDE" transform="translate(228.6875,263)"/>
<path d="M0 0 C0.33 0 0.66 0 1 0 C1.33 11.55 1.66 23.1 2 35 C-2.3839835 30.6160165 -2.15981621 24.05588779 -2.25 18.1875 C-2.16928584 11.9523311 -1.38780308 6.07163849 0 0 Z " fill="#E9E0DF" transform="translate(332,99)"/>
<path d="M0 0 C0.99 0.33 1.98 0.66 3 1 C3 2.65 3 4.3 3 6 C2.21625 6.28875 1.4325 6.5775 0.625 6.875 C-2.09671632 7.84912254 -2.09671632 7.84912254 -4 10 C-4.6425235 12.06874034 -4.6425235 12.06874034 -5 14 C-7.3125 14.625 -7.3125 14.625 -10 15 C-10.99 14.34 -11.98 13.68 -13 13 C-8.71 8.71 -4.42 4.42 0 0 Z " fill="#E6DEDD" transform="translate(458,476)"/>
<path d="M0 0 C0.99 0 1.98 0 3 0 C4.38529821 5.45461169 5.2396943 10.36718401 5 16 C4.01 16.33 3.02 16.66 2 17 C1.26676204 19.01508358 1.26676204 19.01508358 1 21 C0.67 21 0.34 21 0 21 C0 14.07 0 7.14 0 0 Z " fill="#E9E1DF" transform="translate(125,407)"/>
<path d="M0 0 C0.66 0 1.32 0 2 0 C2 8.25 2 16.5 2 25 C1.01 25 0.02 25 -1 25 C-0.979375 24.030625 -0.95875 23.06125 -0.9375 22.0625 C-0.64381501 19.12534105 -0.64381501 19.12534105 -2 18 C-2.34201376 11.72974776 -1.40055535 6.10241975 0 0 Z " fill="#EAE2E1" transform="translate(475,433)"/>
<path d="M0 0 C0.33 0 0.66 0 1 0 C1 7.92 1 15.84 1 24 C-3 20 -3 20 -3.4609375 17.703125 C-3.24543854 11.55160926 -2.80118054 5.60236107 0 0 Z " fill="#E8E0DF" transform="translate(332,165)"/>
<path d="M0 0 C0.33 0 0.66 0 1 0 C1 9.9 1 19.8 1 30 C0.01 29.67 -0.98 29.34 -2 29 C-2.27538262 19.07092668 -1.53653322 9.79539929 0 0 Z " fill="#EAE2E1" transform="translate(212,178)"/>
<path d="M0 0 C5.61 0.33 11.22 0.66 17 1 C13 5 13 5 9.765625 5.390625 C8.60546875 5.34421875 7.4453125 5.2978125 6.25 5.25 C5.07953125 5.21390625 3.9090625 5.1778125 2.703125 5.140625 C1.81109375 5.09421875 0.9190625 5.0478125 0 5 C0 3.35 0 1.7 0 0 Z " fill="#E8E0DF" transform="translate(405,446)"/>
<path d="M0 0 C0 0.33 0 0.66 0 1 C-6.27 1 -12.54 1 -19 1 C-19 0.01 -19 -0.98 -19 -2 C-12.13971971 -4.2867601 -6.48114816 -2.46900882 0 0 Z " fill="#E9E0DF" transform="translate(330,514)"/>
<path d="M0 0 C2.0343459 1.41519715 2.90410393 2.54982123 3.421875 4.98046875 C3.66273952 6.98176954 3.83532741 8.9909944 4 11 C2.02 11.99 2.02 11.99 0 13 C-0.98248196 8.94726192 -1.16017882 5.16464926 -1 1 C-0.67 0.67 -0.34 0.34 0 0 Z " fill="#E9E0DF" transform="translate(213,406)"/>
<path d="M0 0 C0.99 0.66 1.98 1.32 3 2 C3 2.66 3 3.32 3 4 C-1.62 4 -6.24 4 -11 4 C-10.34 3.67 -9.68 3.34 -9 3 C-9 2.34 -9 1.68 -9 1 C-5.74531799 -0.084894 -3.4103976 -0.21314985 0 0 Z " fill="#E9E0DF" transform="translate(403,511)"/>
<path d="M0 0 C0 0.33 0 0.66 0 1 C-4.95 1 -9.9 1 -15 1 C-15 0.34 -15 -0.32 -15 -1 C-8.6538618 -3.1153794 -5.89436758 -3.19278244 0 0 Z " fill="#EAE1E0" transform="translate(293,18)"/>
<path d="M0 0 C0.66 1.65 1.32 3.3 2 5 C-2.455 5.495 -2.455 5.495 -7 6 C-7 4.68 -7 3.36 -7 2 C-4 0 -4 0 0 0 Z " fill="#E8E1E0" transform="translate(267,78)"/>
<path d="M0 0 C2 1 2 1 3 3 C3.06996014 4.70702735 3.08440154 6.41668003 3.0625 8.125 C3.05347656 9.03507812 3.04445313 9.94515625 3.03515625 10.8828125 C3.02355469 11.58148438 3.01195312 12.28015625 3 13 C2.01 13.33 1.02 13.66 0 14 C0 9.38 0 4.76 0 0 Z " fill="#E1D7D6" transform="translate(24,447)"/>
<path d="M0 0 C0.66 0.33 1.32 0.66 2 1 C2 3.31 2 5.62 2 8 C0.02 8 -1.96 8 -4 8 C-3.6875 5.125 -3.6875 5.125 -3 2 C-2.01 1.34 -1.02 0.68 0 0 Z " fill="#E8DFDB" transform="translate(67,427)"/>
<path d="M0 0 C0.66 0 1.32 0 2 0 C2 2.31 2 4.62 2 7 C0.02 7.66 -1.96 8.32 -4 9 C-3.4739075 5.21213403 -2.61896089 2.82847776 0 0 Z " fill="#E8DFDE" transform="translate(227,108)"/>
<path d="M0 0 C1.60517097 0.08733576 3.20921662 0.19552224 4.8125 0.3125 C6.15248047 0.39951172 6.15248047 0.39951172 7.51953125 0.48828125 C10 1 10 1 13 4 C6.07 3.505 6.07 3.505 -1 3 C-0.67 2.01 -0.34 1.02 0 0 Z " fill="#E8E0DE" transform="translate(446,72)"/>
<path d="M0 0 C0 0.66 0 1.32 0 2 C0.66 2.33 1.32 2.66 2 3 C1 4 1 4 -1.28515625 4.09765625 C-2.65994141 4.08025391 -2.65994141 4.08025391 -4.0625 4.0625 C-4.98160156 4.05347656 -5.90070313 4.04445313 -6.84765625 4.03515625 C-7.55792969 4.02355469 -8.26820313 4.01195312 -9 4 C-9.33 3.34 -9.66 2.68 -10 2 C-6.38026598 0.68373308 -3.90432869 0 0 0 Z " fill="#EAE1E0" transform="translate(163,447)"/>
<path d="M0 0 C0.89332031 0.13921875 1.78664063 0.2784375 2.70703125 0.421875 C3.60808594 0.55078125 4.50914062 0.6796875 5.4375 0.8125 C6.12457031 0.93109375 6.81164062 1.0496875 7.51953125 1.171875 C5.74508153 3.41793927 4.9360064 4.12268502 2.0390625 4.46484375 C0.69908203 4.41263672 0.69908203 4.41263672 -0.66796875 4.359375 C-2.01955078 4.31876953 -2.01955078 4.31876953 -3.3984375 4.27734375 C-4.08550781 4.24253906 -4.77257812 4.20773437 -5.48046875 4.171875 C-3.17521711 0.22001504 -3.17521711 0.22001504 0 0 Z " fill="#E8DFDE" transform="translate(404.48046875,530.828125)"/>
<path d="M0 0 C1.79133978 -0.05391993 3.58313899 -0.09275571 5.375 -0.125 C6.37273437 -0.14820313 7.37046875 -0.17140625 8.3984375 -0.1953125 C11 0 11 0 13 2 C9.0186217 3.3271261 5.14954773 3.06915913 1 3 C0.67 2.01 0.34 1.02 0 0 Z " fill="#E9E1E0" transform="translate(266,523)"/>
<path d="M0 0 C1.98 0.99 1.98 0.99 4 2 C4 4.31 4 6.62 4 9 C2.68 9 1.36 9 0 9 C0 6.03 0 3.06 0 0 Z " fill="#E0D6D5" transform="translate(24,10)"/>
<path d="M0 0 C0.99 0.33 1.98 0.66 3 1 C3 4.3 3 7.6 3 11 C1.68 10.34 0.36 9.68 -1 9 C-0.67 6.03 -0.34 3.06 0 0 Z " fill="#E9E1E0" transform="translate(322,83)"/>
<path d="M0 0 C2.4375 0.6875 2.4375 0.6875 5 2 C5.8125 4.625 5.8125 4.625 6 7 C4.35 7 2.7 7 1 7 C0.67 4.69 0.34 2.38 0 0 Z " fill="#E7E0DE" transform="translate(284,316)"/>
<path d="M0 0 C0.99 0 1.98 0 3 0 C3 2.64 3 5.28 3 8 C1.68 7.34 0.36 6.68 -1 6 C-1.042721 4.33388095 -1.04063832 2.66617115 -1 1 C-0.67 0.67 -0.34 0.34 0 0 Z " fill="#E1D8D6" transform="translate(320,203)"/>
<path d="M0 0 C2.42130331 2.42130331 2.52840504 3.80111377 3.125 7.125 C3.29257812 8.03507813 3.46015625 8.94515625 3.6328125 9.8828125 C3.81457031 10.93082031 3.81457031 10.93082031 4 12 C2.68 11.67 1.36 11.34 0 11 C0 7.37 0 3.74 0 0 Z " fill="#EAE2E1" transform="translate(381,180)"/>
<path d="M0 0 C0.99 0.33 1.98 0.66 3 1 C3 3.97 3 6.94 3 10 C2.34 10 1.68 10 1 10 C0.67 6.7 0.34 3.4 0 0 Z " fill="#EAE1E0" transform="translate(218,121)"/>
<path d="M0 0 C0.66 0 1.32 0 2 0 C2 0.66 2 1.32 2 2 C2.66 2 3.32 2 4 2 C3.67 3.65 3.34 5.3 3 7 C2.01 7.33 1.02 7.66 0 8 C0 5.36 0 2.72 0 0 Z " fill="#E6DEDD" transform="translate(509,467)"/>
<path d="M0 0 C0.66 0 1.32 0 2 0 C2 2.97 2 5.94 2 9 C1.01 9 0.02 9 -1 9 C-0.67 6.03 -0.34 3.06 0 0 Z " fill="#E9E1E0" transform="translate(251,355)"/>
<path d="M0 0 C0.66 0 1.32 0 2 0 C2 1.98 2 3.96 2 6 C0.68 6.33 -0.64 6.66 -2 7 C-1.125 1.125 -1.125 1.125 0 0 Z " fill="#E9E1E0" transform="translate(275,395)"/>
<path d="M0 0 C0.33 0.66 0.66 1.32 1 2 C0.01 2.99 -0.98 3.98 -2 5 C-3.98 4.01 -5.96 3.02 -8 2 C-8 1.67 -8 1.34 -8 1 C-5.36 0.67 -2.72 0.34 0 0 Z " fill="#E9E0DF" transform="translate(174,447)"/>
<path d="M0 0 C2.31 0 4.62 0 7 0 C6.67 1.32 6.34 2.64 6 4 C3.83125748 3.49396008 2.00032373 3.00016187 0 2 C0 1.34 0 0.68 0 0 Z " fill="#E7DFDE" transform="translate(446,355)"/>
<path d="M0 0 C-0.25 1.875 -0.25 1.875 -1 4 C-3.0625 5.25 -3.0625 5.25 -5 6 C-5 3 -5 3 -3.625 1.3125 C-2 0 -2 0 0 0 Z " fill="#E6DDDC" transform="translate(442,493)"/>
<path d="M0 0 C1.32 0.66 2.64 1.32 4 2 C3.34 3.32 2.68 4.64 2 6 C0.68 5.34 -0.64 4.68 -2 4 C-1.34 2.68 -0.68 1.36 0 0 Z " fill="#E9E0DF" transform="translate(58,438)"/>
<path d="M0 0 C1.23556641 0.01740234 1.23556641 0.01740234 2.49609375 0.03515625 C3.32238281 0.04417969 4.14867187 0.05320312 5 0.0625 C5.63808594 0.07410156 6.27617187 0.08570313 6.93359375 0.09765625 C6.60359375 0.75765625 6.27359375 1.41765625 5.93359375 2.09765625 C4.28359375 1.76765625 2.63359375 1.43765625 0.93359375 1.09765625 C0.93359375 1.75765625 0.93359375 2.41765625 0.93359375 3.09765625 C-0.38640625 2.43765625 -1.70640625 1.77765625 -3.06640625 1.09765625 C-2.06640625 0.09765625 -2.06640625 0.09765625 0 0 Z " fill="#E9E1E0" transform="translate(379.06640625,314.90234375)"/>
<path d="M0 0 C0.99 0 1.98 0 3 0 C3 1.32 3 2.64 3 4 C1.68 4.33 0.36 4.66 -1 5 C-0.67 3.35 -0.34 1.7 0 0 Z " fill="#E7DFDE" transform="translate(234,331)"/>
<path d="M0 0 C1.32 0.33 2.64 0.66 4 1 C3.67 1.99 3.34 2.98 3 4 C1.02 4 -0.96 4 -3 4 C-2.01 2.68 -1.02 1.36 0 0 Z " fill="#E9E0DF" transform="translate(351,247)"/>
</svg>
